<svg version="1.0" xmlns="http://www.w3.org/2000/svg"
 width="96.000000pt" height="96.000000pt" viewBox="0 0 96.000000 96.000000"
 preserveAspectRatio="xMidYMid meet">

<g transform="translate(0.000000,96.000000) scale(0.100000,-0.100000)"
fill="#000000" stroke="none">
<path d="M463 953 c-15 -6 -17 -49 -3 -58 6 -3 10 -50 10 -106 0 -81 -3 -99
-15 -99 -12 0 -15 14 -15 70 0 40 -4 70 -10 70 -6 0 -10 -30 -10 -70 0 -56 -3
-70 -15 -70 -12 0 -15 14 -15 66 0 61 -2 67 -31 91 -17 15 -35 37 -40 50 -12
31 -37 40 -57 19 -21 -21 -6 -49 29 -56 13 -3 36 -13 52 -24 25 -17 27 -24 27
-82 0 -36 -4 -64 -10 -64 -5 0 -10 15 -10 33 0 28 -6 37 -34 52 -19 11 -37 27
-39 37 -7 26 -36 34 -55 14 -22 -22 -5 -51 31 -51 73 -2 108 -69 47 -92 -20
-8 -30 -18 -30 -32 0 -16 -6 -21 -28 -21 -31 0 -54 33 -56 79 -1 34 -31 50
-52 29 -20 -19 -12 -48 14 -55 10 -2 26 -20 37 -39 15 -28 24 -34 52 -34 18 0
33 -4 33 -10 0 -6 -26 -10 -58 -10 -51 0 -62 4 -85 28 -15 15 -27 37 -27 49 0
29 -27 50 -48 36 -24 -15 -21 -45 6 -59 13 -6 38 -26 56 -43 29 -28 38 -31 94
-31 48 0 62 -3 62 -15 0 -11 -17 -15 -72 -18 l-73 -3 73 -2 c65 -2 72 -4 72
-22 0 -19 -7 -20 -97 -20 -68 1 -104 5 -116 15 -31 23 -64 -4 -51 -40 7 -17
49 -20 59 -5 3 6 50 10 106 10 81 0 99 -3 99 -15 0 -12 -14 -15 -70 -15 -40 0
-70 -4 -70 -10 0 -6 30 -10 70 -10 56 0 70 -3 70 -15 0 -12 -14 -15 -66 -15
-61 0 -67 -2 -91 -31 -15 -17 -37 -35 -50 -40 -31 -12 -40 -37 -19 -57 21 -21
49 -6 56 29 3 13 13 36 24 52 17 25 24 27 82 27 36 0 64 -4 64 -10 0 -5 -15
-10 -33 -10 -28 0 -37 -6 -52 -34 -11 -19 -27 -37 -37 -39 -26 -7 -34 -36 -14
-55 22 -22 51 -5 51 31 2 73 69 108 92 47 8 -20 18 -30 32 -30 16 0 21 -6 21
-28 0 -31 -33 -54 -79 -56 -34 -1 -50 -31 -29 -52 19 -20 48 -12 55 14 2 10
20 26 39 37 28 15 34 24 34 52 0 18 5 33 10 33 6 0 10 -28 10 -64 0 -58 -2
-65 -27 -82 -16 -11 -39 -21 -52 -24 -35 -7 -50 -35 -29 -56 20 -20 45 -12 57
18 5 13 23 36 40 52 28 27 31 35 31 93 0 48 3 63 15 63 11 0 15 -17 18 -72 l3
-73 2 73 c2 65 4 72 22 72 19 0 20 -7 20 -97 -1 -68 -5 -104 -15 -116 -23 -31
4 -64 40 -51 17 7 20 49 5 59 -6 3 -10 50 -10 106 0 81 3 99 15 99 12 0 15
-14 15 -70 0 -40 4 -70 10 -70 6 0 10 30 10 70 0 56 3 70 15 70 12 0 15 -14
15 -66 0 -61 2 -67 31 -91 17 -15 35 -37 40 -50 12 -31 37 -40 57 -19 21 21 6
49 -29 56 -13 3 -36 13 -51 24 -26 17 -28 24 -28 82 0 36 4 64 10 64 6 0 10
-15 10 -33 0 -26 6 -36 33 -50 18 -10 37 -28 42 -40 13 -29 41 -33 55 -7 15
27 -4 52 -35 48 -37 -5 -75 22 -75 53 0 20 6 28 25 33 15 4 27 16 31 31 5 19
13 25 33 25 30 0 53 -33 55 -79 1 -34 31 -50 52 -29 20 19 12 48 -14 55 -10 2
-26 20 -37 39 -15 28 -24 34 -52 34 -18 0 -33 5 -33 10 0 6 26 10 57 10 48 0
61 -4 85 -27 15 -15 28 -37 28 -49 0 -30 27 -51 48 -37 24 15 21 45 -6 59 -13
6 -38 26 -56 43 -29 28 -38 31 -94 31 -48 0 -62 3 -62 15 0 11 17 15 73 18
l72 3 -72 2 c-66 2 -73 4 -73 22 0 19 7 20 98 20 68 -1 103 -5 116 -15 25 -19
58 -2 54 28 -3 25 -43 36 -61 18 -6 -6 -52 -11 -109 -11 -80 0 -98 3 -98 15 0
12 14 15 70 15 40 0 70 4 70 10 0 6 -30 10 -70 10 -56 0 -70 3 -70 15 0 12 14
15 65 15 62 0 67 2 96 35 17 19 39 35 49 35 26 0 36 38 16 58 -21 21 -49 6
-56 -29 -3 -13 -13 -36 -24 -51 -17 -26 -24 -28 -82 -28 -36 0 -64 4 -64 10 0
6 15 10 33 10 28 0 37 6 53 35 10 19 26 35 36 35 24 0 34 39 14 58 -22 22 -51
4 -51 -31 -1 -44 -25 -77 -56 -77 -20 0 -28 6 -33 25 -4 15 -16 27 -31 31 -19
5 -25 13 -25 33 0 30 33 53 79 55 34 1 50 31 29 52 -19 20 -48 12 -55 -14 -2
-10 -20 -26 -39 -37 -28 -15 -34 -24 -34 -52 0 -18 -4 -33 -10 -33 -6 0 -10
27 -10 60 0 54 3 62 31 87 16 15 40 28 51 28 31 0 47 31 26 51 -20 20 -45 12
-57 -18 -5 -13 -23 -36 -40 -52 -28 -27 -31 -35 -31 -93 0 -48 -3 -63 -15 -63
-11 0 -15 17 -18 73 l-3 72 -2 -72 c-2 -66 -4 -73 -22 -73 -19 0 -20 7 -20 95
0 69 4 102 15 119 14 22 14 25 0 40 -17 17 -22 18 -42 9z m29 -28 c0 -5 -5
-11 -11 -13 -6 -2 -11 4 -11 13 0 9 5 15 11 13 6 -2 11 -8 11 -13z m-192 -30
c0 -8 -7 -15 -15 -15 -16 0 -20 12 -8 23 11 12 23 8 23 -8z m390 0 c0 -8 -7
-15 -15 -15 -8 0 -15 7 -15 15 0 8 7 15 15 15 8 0 15 -7 15 -15z m-430 -90 c0
-8 -7 -15 -15 -15 -16 0 -20 12 -8 23 11 12 23 8 23 -8z m468 -3 c2 -7 -3 -12
-12 -12 -9 0 -16 7 -16 16 0 17 22 14 28 -4z m-558 -87 c0 -8 -7 -15 -15 -15
-16 0 -20 12 -8 23 11 12 23 8 23 -8z m648 -3 c2 -7 -3 -12 -12 -12 -9 0 -16
7 -16 16 0 17 22 14 28 -4z m-738 -37 c0 -8 -7 -15 -15 -15 -8 0 -15 7 -15 15
0 8 7 15 15 15 8 0 15 -7 15 -15z m828 -3 c2 -7 -3 -12 -12 -12 -9 0 -16 7
-16 16 0 17 22 14 28 -4z m-243 -192 l0 -185 -185 0 -185 0 -3 175 c-1 96 0
180 3 187 3 11 44 13 187 11 l183 -3 0 -185z m-615 -1 c0 -5 -7 -9 -15 -9 -15
0 -20 12 -9 23 8 8 24 -1 24 -14z m888 0 c-2 -6 -8 -10 -13 -10 -5 0 -11 4
-13 10 -2 6 4 11 13 11 9 0 15 -5 13 -11z m-858 -195 c0 -17 -22 -14 -28 4 -2
7 3 12 12 12 9 0 16 -7 16 -16z m830 1 c0 -8 -7 -15 -15 -15 -8 0 -15 7 -15
15 0 8 7 15 15 15 8 0 15 -7 15 -15z m-740 -41 c0 -9 -5 -14 -12 -12 -18 6
-21 28 -4 28 9 0 16 -7 16 -16z m648 4 c-6 -18 -28 -21 -28 -4 0 9 7 16 16 16
9 0 14 -5 12 -12z m-558 -94 c0 -9 -5 -14 -12 -12 -18 6 -21 28 -4 28 9 0 16
-7 16 -16z m468 4 c-6 -18 -28 -21 -28 -4 0 9 7 16 16 16 9 0 14 -5 12 -12z
m-428 -93 c0 -8 -7 -15 -15 -15 -8 0 -15 7 -15 15 0 8 7 15 15 15 8 0 15 -7
15 -15z m390 0 c0 -8 -7 -15 -15 -15 -8 0 -15 7 -15 15 0 8 7 15 15 15 8 0 15
-7 15 -15z m-200 -30 c0 -8 -4 -15 -9 -15 -13 0 -22 16 -14 24 11 11 23 6 23
-9z"/>
<path d="M330 480 l0 -150 150 0 150 0 0 150 0 150 -150 0 -150 0 0 -150z
m285 0 l0 -135 -135 0 -135 0 -3 124 c-1 69 0 131 2 138 4 11 35 13 138 11
l133 -3 0 -135z"/>
</g>
</svg>
